<svg width="108" height="56" viewBox="0 0 108 56" fill="none" xmlns="http://www.w3.org/2000/svg">
<rect width="108" height="56" rx="12" fill="#F7F7FD"/>
<g clip-path="url(#clip0_1_2624)">
<path d="M34.7709 34.1148V21.8852C34.7709 19.7428 32.9609 18 30.736 18H18.0349C15.81 18 14 19.7428 14 21.8852V34.1148C14 36.2572 15.81 38 18.0349 38H30.736C32.9609 38 34.7709 36.2572 34.7709 34.1148Z" fill="url(#paint0_linear_1_2624)"/>
<path fill-rule="evenodd" clip-rule="evenodd" d="M27.8085 18.9907L17.8442 23.7067L32.4967 23.4501L30.7058 19.9417C30.1785 18.9087 28.8813 18.483 27.8085 18.9907Z" fill="#8BC53F"/>
<path fill-rule="evenodd" clip-rule="evenodd" d="M30.0979 20.7226L17.103 23.8703L33.2409 24.2763L32.725 22.2354C32.4334 21.1191 31.2572 20.4419 30.0979 20.7226Z" fill="#008F4D"/>
<path fill-rule="evenodd" clip-rule="evenodd" d="M32.8996 31.0691C32.8996 30.2705 32.2271 29.623 31.3976 29.623C30.5682 29.623 29.8958 30.2705 29.8958 31.0691C29.8958 31.8678 30.5682 32.5153 31.3976 32.5153C32.2271 32.5153 32.8996 31.8678 32.8996 31.0691Z" fill="white"/>
<path fill-rule="evenodd" clip-rule="evenodd" d="M30.9637 23.6152H17.1321C16.9389 23.6152 16.7824 23.7658 16.7824 23.9518C16.7824 24.1377 16.9389 24.2883 17.1321 24.2883H30.9637C33.0486 24.2883 34.7448 25.9438 34.7448 27.9785L34.7709 28.276V25.6814C33.9797 24.4421 32.5691 23.6152 30.9637 23.6152Z" fill="white"/>
<path fill-rule="evenodd" clip-rule="evenodd" d="M16.4538 34.2942C16.069 34.4241 15.8663 34.8298 16.0012 35.2003C16.1361 35.571 16.5575 35.7661 16.9424 35.6361C17.3273 35.5062 17.5298 35.1005 17.3949 34.73C17.26 34.3593 16.8387 34.1642 16.4538 34.2942Z" fill="#BA3827"/>
<path fill-rule="evenodd" clip-rule="evenodd" d="M17.86 33.2717C17.4752 33.4016 17.2725 33.8074 17.4073 34.1779C17.5423 34.5485 17.9637 34.7436 18.3486 34.6137C18.7335 34.4837 18.936 34.078 18.801 33.7075C18.6662 33.3369 18.2448 33.1417 17.86 33.2717Z" fill="#BA3827"/>
<path fill-rule="evenodd" clip-rule="evenodd" d="M16.0681 32.5623C15.6719 32.6947 15.461 33.1021 15.5973 33.4725C15.7336 33.8427 16.1653 34.0356 16.5616 33.9032C16.9579 33.7708 17.1686 33.3634 17.0323 32.9931C16.8961 32.6228 16.4644 32.4299 16.0681 32.5623Z" fill="#BA3827"/>
<path fill-rule="evenodd" clip-rule="evenodd" d="M18.1865 35.0256C17.8016 35.1556 17.5991 35.5613 17.7339 35.9318C17.8688 36.3024 18.2902 36.4975 18.675 36.3676C19.0599 36.2376 19.2625 35.832 19.1276 35.4614C18.9926 35.0908 18.5713 34.8956 18.1865 35.0256Z" fill="#BA3827"/>
<path fill-rule="evenodd" clip-rule="evenodd" d="M47.5652 28.1993L46.1337 24.2363L44.7021 28.1993H47.5652ZM43.1812 32.3344H40.9443L45.1495 21.4795H47.1179L51.3231 32.3344H49.0862L48.281 30.0946H43.9864L43.1812 32.3344Z" fill="#00527D"/>
<path fill-rule="evenodd" clip-rule="evenodd" d="M54.0965 28.3723C54.0965 29.0271 54.2934 29.5498 54.687 29.9402C55.0807 30.3308 55.5698 30.526 56.1544 30.526C56.7387 30.526 57.2281 30.3308 57.6216 29.9402C58.0154 29.5498 58.2123 29.0271 58.2123 28.3723C58.2123 27.7175 58.0154 27.195 57.6216 26.8043C57.2281 26.4139 56.7387 26.2186 56.1544 26.2186C55.5698 26.2186 55.0807 26.4139 54.687 26.8043C54.2934 27.195 54.0965 27.7175 54.0965 28.3723ZM56.4227 24.3232C56.9355 24.3232 57.4248 24.4238 57.8901 24.6247C58.3554 24.8258 58.7639 25.1072 59.1158 25.469C59.4676 25.8308 59.748 26.2588 59.957 26.7526C60.1655 27.2467 60.27 27.7864 60.27 28.3723C60.27 28.958 60.1655 29.4981 59.957 29.9918C59.748 30.4859 59.4676 30.9137 59.1158 31.2755C58.7639 31.6374 58.3554 31.9189 57.8901 32.1198C57.4248 32.3209 56.9355 32.4214 56.4227 32.4214C56.0766 32.4214 55.7754 32.3808 55.5191 32.3007C55.2625 32.2205 55.0387 32.1343 54.8481 32.0423C54.6333 31.9276 54.4424 31.7954 54.2755 31.6459V35.0921H52.2177V24.4094H53.7387L54.0965 25.1847C54.2754 25.0239 54.4841 24.8805 54.7228 24.7539C54.9256 24.6506 55.1702 24.553 55.4565 24.4611C55.7427 24.3692 56.0649 24.3232 56.4227 24.3232Z" fill="#00527D"/>
<path fill-rule="evenodd" clip-rule="evenodd" d="M65.4592 26.2185C64.9224 26.2185 64.4838 26.368 64.1438 26.6665C63.804 26.9653 63.5861 27.3328 63.4908 27.7693H67.4274C67.3319 27.3328 67.1143 26.9653 66.7743 26.6665C66.4342 26.368 65.9959 26.2185 65.4592 26.2185ZM69.1274 29.923C69.02 30.2218 68.856 30.5204 68.6353 30.819C68.4145 31.1178 68.146 31.3848 67.8302 31.6202C67.5138 31.8557 67.156 32.0482 66.7564 32.1973C66.3566 32.3465 65.9244 32.4214 65.4592 32.4214C64.8983 32.4214 64.3705 32.3154 63.8755 32.1026C63.3804 31.8902 62.9449 31.6002 62.5692 31.2324C62.1934 30.865 61.8951 30.4372 61.6745 29.9488C61.4535 29.4607 61.3434 28.9351 61.3434 28.3723C61.3434 27.8096 61.4535 27.2841 61.6745 26.7957C61.8951 26.3076 62.1934 25.8798 62.5692 25.5121C62.9449 25.1447 63.3804 24.8546 63.8755 24.642C64.3705 24.4296 64.8983 24.3232 65.4592 24.3232C65.9959 24.3232 66.5028 24.4209 66.9801 24.6161C67.4572 24.8117 67.8748 25.0873 68.2328 25.4432C68.5907 25.7994 68.8739 26.2272 69.0827 26.7269C69.2913 27.2265 69.3959 27.7752 69.3959 28.3723C69.3959 28.4643 69.3897 28.5533 69.3779 28.6394C69.366 28.7255 69.3539 28.8089 69.3422 28.8892C69.3302 28.9813 69.3181 29.0674 69.3064 29.1476H63.5802C63.6756 29.5382 63.8784 29.8657 64.1887 30.1297C64.4987 30.3941 64.9224 30.5261 65.4592 30.5261C65.7333 30.5261 65.963 30.4975 66.148 30.44C66.3329 30.3825 66.4908 30.3136 66.6221 30.2331C66.7654 30.1413 66.8845 30.0379 66.9801 29.923H69.1274Z" fill="#00527D"/>
<path fill-rule="evenodd" clip-rule="evenodd" d="M72.9746 32.3345H70.9166V21.4795H72.9746V32.3345Z" fill="#00527D"/>
<path fill-rule="evenodd" clip-rule="evenodd" d="M76.4637 29.8368C76.5112 30.1012 76.6425 30.3252 76.8574 30.5088C77.0721 30.6927 77.3584 30.7845 77.7163 30.7845C78.0743 30.7845 78.3574 30.6957 78.5663 30.5174C78.7749 30.3395 78.8794 30.1413 78.8794 29.9231C78.8794 29.7394 78.7749 29.5956 78.5663 29.4923C78.3574 29.3889 78.098 29.2941 77.7878 29.2079C77.4776 29.1217 77.1407 29.033 76.7768 28.9409C76.4128 28.8491 76.0759 28.7141 75.7658 28.536C75.4555 28.358 75.1959 28.1284 74.9874 27.8468C74.7785 27.5655 74.6743 27.195 74.6743 26.7354C74.6743 26.414 74.7428 26.1065 74.8801 25.8135C75.017 25.5207 75.2169 25.2652 75.4796 25.0468C75.7417 24.8288 76.0521 24.6535 76.41 24.5215C76.768 24.3895 77.1733 24.3232 77.6268 24.3232C78.6169 24.3232 79.3774 24.5531 79.9083 25.0125C80.439 25.472 80.7522 26.0462 80.8479 26.7354H78.8794C78.8316 26.5632 78.7032 26.3908 78.4947 26.2185C78.2859 26.0463 78.0263 25.9601 77.7163 25.9601C77.4059 25.9601 77.1645 26.035 76.9914 26.1841C76.8185 26.3335 76.7322 26.5173 76.7322 26.7354C76.7322 26.9193 76.8365 27.0628 77.0453 27.1662C77.2539 27.2696 77.5134 27.3643 77.8236 27.4505C78.1338 27.5367 78.4708 27.6287 78.8347 27.7262C79.1986 27.8239 79.5354 27.9647 79.8457 28.1483C80.1559 28.3322 80.4151 28.5705 80.6242 28.8634C80.8327 29.1562 80.9373 29.5382 80.9373 30.0091C80.9373 30.3308 80.8656 30.638 80.7225 30.9311C80.5794 31.2239 80.3765 31.4796 80.1141 31.6977C79.8516 31.916 79.5326 32.0913 79.1568 32.2233C78.7809 32.3551 78.3605 32.4214 77.8952 32.4214C76.8216 32.4214 76.0074 32.186 75.4527 31.7149C74.8979 31.244 74.5788 30.6182 74.4954 29.8368H76.4637Z" fill="#00527D"/>
<path fill-rule="evenodd" clip-rule="evenodd" d="M84.5161 32.3353H82.4583V24.4095H84.5161V32.3353ZM83.5319 23.3756C83.2215 23.3756 82.9505 23.2636 82.7178 23.0397C82.4851 22.8157 82.3688 22.5545 82.3688 22.2557C82.3688 21.9572 82.4851 21.6958 82.7178 21.4718C82.9505 21.2477 83.2215 21.1357 83.5319 21.1357C83.842 21.1357 84.1135 21.2477 84.3461 21.4718C84.5787 21.6958 84.695 21.9572 84.695 22.2557C84.695 22.5545 84.5787 22.8157 84.3461 23.0397C84.1135 23.2636 83.842 23.3756 83.5319 23.3756Z" fill="#00527D"/>
<path fill-rule="evenodd" clip-rule="evenodd" d="M90.6893 24.3232C91.1784 24.3232 91.6258 24.4008 92.0314 24.5558C92.4368 24.7109 92.7857 24.9349 93.0783 25.2278C93.3703 25.5207 93.5971 25.8739 93.7582 26.2875C93.9193 26.7009 94 27.1662 94 27.6832V32.3351H91.942V27.9416C91.942 27.4246 91.7836 27.0085 91.4678 26.6923C91.1516 26.3766 90.7431 26.2186 90.2419 26.2186C89.741 26.2186 89.3322 26.3766 89.0163 26.6923C88.7 27.0085 88.5422 27.4246 88.5422 27.9416V32.3351H86.4843V24.4094H88.0053L88.3632 25.1848C88.5658 25.024 88.7865 24.8805 89.0253 24.754C89.228 24.6506 89.4695 24.5532 89.7499 24.4611C90.03 24.3693 90.3432 24.3232 90.6893 24.3232Z" fill="#00527D"/>
</g>
<defs>
<linearGradient id="paint0_linear_1_2624" x1="34.8668" y1="18" x2="14.7888" y2="38.8519" gradientUnits="userSpaceOnUse">
<stop stop-color="#FCB950"/>
<stop offset="1" stop-color="#EF4324"/>
</linearGradient>
<clipPath id="clip0_1_2624">
<rect width="80" height="20" fill="white" transform="translate(14 18)"/>
</clipPath>
</defs>
</svg>
