<svg width="108" height="56" viewBox="0 0 108 56" fill="none" xmlns="http://www.w3.org/2000/svg">
<rect width="108" height="56" rx="12" fill="#F7F7FD"/>
<g clip-path="url(#clip0_1_2628)">
<path fill-rule="evenodd" clip-rule="evenodd" d="M26.6827 38.8697C26.1622 38.8662 25.6478 38.7869 25.1509 38.6315C24.6073 38.462 24.0818 38.2352 23.5808 37.9572C22.8982 37.6004 22.2445 37.1843 21.6298 36.7149C21.0749 36.2732 20.5525 35.7924 20.0635 35.2754C19.4003 34.5991 18.7815 33.9091 18.2725 33.2727C17.7102 32.5984 17.2244 31.859 16.8245 31.0701L16.7893 30.9994V30.9974L16.782 30.9798V30.9717L16.7433 30.8868L16.7413 30.8808L16.7373 30.8752L16.7007 30.7921L16.6966 30.7824V30.7784L16.6674 30.7173L16.6601 30.6976L16.6541 30.682L16.6483 30.6698V30.6678L16.6194 30.6029L16.6175 30.5952L16.6095 30.587L16.5748 30.5064L16.5689 30.4947L16.5362 30.412L16.5343 30.408L16.5324 30.4019L16.4664 30.2343V30.2324L16.4627 30.2228L16.4339 30.1454L16.432 30.1379L16.4279 30.1299C16.4199 30.1062 16.4107 30.0804 16.4028 30.0567V30.0512L16.3968 30.0371C16.3872 30.0079 16.3795 29.986 16.3721 29.9642V29.9602L16.366 29.9426L16.3368 29.8674L16.3314 29.8458L16.3082 29.7771L16.3041 29.7649L16.3022 29.7555C16.2924 29.7296 16.2869 29.706 16.2809 29.6863L16.273 29.6645L16.2558 29.6034L16.2517 29.5918V29.5899L16.2484 29.5757L16.2305 29.5146L16.227 29.5052L16.2251 29.4889C16.2172 29.4657 16.2112 29.446 16.2077 29.4258L16.1998 29.4026C16.1959 29.3824 16.1899 29.3612 16.1846 29.3375L16.1785 29.3159V29.3097C16.1747 29.2942 16.1687 29.2724 16.1632 29.2487L16.1553 29.2189C16.1513 29.1991 16.1474 29.1797 16.142 29.1558L16.1399 29.1422L16.136 29.1266C16.132 29.1069 16.1279 29.0871 16.1226 29.0674L16.1186 29.0376C16.1166 29.024 16.1128 29.0099 16.1105 28.9943V28.9787L16.1052 28.9487V28.9446L16.0972 28.8992C16.0934 28.8856 16.0915 28.872 16.0893 28.8579L16.0819 28.813C16.08 28.7988 16.078 28.7851 16.076 28.775C16.0741 28.7635 16.0721 28.7417 16.068 28.724L16.0642 28.6922C16.0628 28.6726 16.0588 28.655 16.0567 28.6353L16.0487 28.6055V28.5999C16.0449 28.5783 16.0449 28.5606 16.0414 28.5424C16.0414 28.5328 16.0395 28.5227 16.0376 28.5131V28.5091C16.0354 28.4913 16.0335 28.4716 16.0315 28.4541C16.0315 28.4418 16.0296 28.4324 16.0296 28.4202V28.4183C16.0275 28.4027 16.0256 28.3869 16.0256 28.3713C16.0256 28.3572 16.0221 28.3436 16.0221 28.33C16.0221 28.3157 16.0201 28.3021 16.0183 28.2885C16.0183 28.2723 16.0161 28.2568 16.0161 28.2413C16.0161 28.2254 16.0161 28.2154 16.0142 28.2038C16.0123 28.1916 16.0142 28.1721 16.0123 28.1562V28.1542C16.0123 28.1406 16.0123 28.1284 16.0123 28.115C16.0123 28.1007 16.0123 28.093 16.0123 28.083V28.0694C16.0123 28.0538 16.0123 28.0396 16.0123 28.026C16.0123 28.0104 16.0123 28.0024 16.0123 27.9907V27.9018C16.0123 27.8842 16.0123 27.8665 16.0123 27.8467C16.0123 27.8347 16.0123 27.8211 16.0123 27.809C16.0123 27.7974 16.0123 27.7776 16.0123 27.762C16.0123 27.7519 16.0123 27.7439 16.0123 27.7343V27.7205C16.0123 27.7005 16.0123 27.6828 16.0142 27.6652C16.0142 27.6556 16.0142 27.6454 16.0142 27.6338C16.0142 27.6177 16.0161 27.5999 16.0183 27.5782C16.0183 27.5687 16.0183 27.5586 16.0202 27.5491C16.0202 27.5294 16.0237 27.5112 16.0256 27.4915V27.4602C16.0256 27.4404 16.0276 27.423 16.0297 27.4032L16.0337 27.3735V27.3673C16.0337 27.3497 16.0377 27.332 16.0396 27.3104C16.0396 27.3022 16.0396 27.2968 16.0431 27.2886V27.277C16.045 27.2573 16.047 27.2371 16.0511 27.2195L16.0549 27.1922C16.0568 27.1724 16.0609 27.1508 16.0628 27.1311L16.0662 27.1095V27.1055C16.0703 27.0857 16.0722 27.066 16.0762 27.0424L16.0821 27.0146C16.0856 26.9929 16.0895 26.9713 16.0936 26.9495L16.0974 26.9318V26.9221C16.1014 26.9004 16.1054 26.8767 16.1089 26.8551L16.1129 26.8354V26.8334C16.1187 26.8116 16.1228 26.7879 16.1281 26.7662V26.7581L16.13 26.7445C16.1341 26.7228 16.14 26.7012 16.1459 26.6753L16.1513 26.6558C16.1554 26.6341 16.1613 26.6102 16.1687 26.583L16.1706 26.571L16.1726 26.5633C16.1806 26.5377 16.1866 26.5119 16.194 26.484L16.198 26.4686C16.2058 26.4406 16.2113 26.4175 16.2193 26.3937L16.2232 26.3756C16.2291 26.354 16.2367 26.3265 16.2446 26.3009V26.2967L16.2485 26.2831C16.2579 26.2575 16.2659 26.2298 16.2732 26.2064L16.2773 26.1924C16.2851 26.1667 16.2945 26.1393 16.3043 26.1054L16.3065 26.1V26.0981C16.3157 26.0683 16.3256 26.039 16.3351 26.0111L16.3392 25.999C16.349 25.9719 16.3583 25.9441 16.3684 25.9182L16.3723 25.9069C16.3837 25.8729 16.3935 25.8477 16.403 25.8218L16.4068 25.8118C16.4164 25.7846 16.4282 25.7548 16.4395 25.7251L16.4417 25.7195C16.4535 25.6897 16.465 25.6604 16.4783 25.6248L16.4821 25.6186C16.4942 25.5873 16.5055 25.5575 16.5189 25.5302L16.5228 25.5202C16.5347 25.4924 16.5461 25.4652 16.5594 25.4313L16.5654 25.4216C16.5753 25.396 16.5887 25.3662 16.6039 25.3309L16.6079 25.3232C16.6232 25.2854 16.6391 25.2541 16.6506 25.2264C17.4242 23.531 18.5822 22.3498 19.702 21.2082L19.7251 21.1845C20.3766 20.5202 20.9859 19.9523 21.5854 19.4496C22.2702 18.8698 23.0008 18.3453 23.7705 17.8862C24.1979 17.6261 24.6561 17.4248 25.1341 17.2869C25.5437 17.1704 25.967 17.1113 26.3907 17.1113C26.9631 17.1152 27.5298 17.2138 28.0709 17.4031C28.5891 17.5828 29.0902 17.8092 29.5677 18.0794C30.3318 18.4973 31.0643 18.9727 31.7605 19.5007C32.4163 19.9978 33.0352 20.5441 33.6133 21.1314C34.2163 21.7542 34.7677 22.4246 35.2628 23.1403C35.7266 23.7773 36.1098 24.4713 36.4018 25.2067C36.5908 25.7215 36.7533 26.248 36.8851 26.7799C37.0009 27.2432 37.0667 27.7188 37.0806 28.1956C37.0879 28.6631 37.0338 29.1301 36.9141 29.5836C36.7747 30.1001 36.5757 30.6013 36.3221 31.0701C35.9608 31.76 35.539 32.4166 35.0598 33.0281C34.5841 33.6296 34.0731 34.201 33.5322 34.7415C32.9479 35.3366 32.331 35.9008 31.6872 36.4289C31.0125 36.9831 30.3046 37.4937 29.5677 37.9573C28.7111 38.5345 27.7096 38.85 26.683 38.8698L26.6827 38.8697ZM28.2623 36.4586C27.833 36.7149 27.3707 36.9083 26.8876 37.0284C27.3707 36.9083 27.833 36.7149 28.2623 36.4586ZM21.9586 35.5889C22.003 35.6207 22.0491 35.652 22.0956 35.6838C22.0456 35.6484 22.0011 35.6187 21.9586 35.5889ZM20.3923 34.2565L20.4714 34.3352L20.3923 34.2565ZM21.1482 26.6341L21.1228 26.6875V26.693L21.1016 26.7425L21.0997 26.7487L21.0784 26.7975V26.8015L21.0572 26.8532V26.8551L21.0378 26.9082V26.9101L21.0184 26.9575V26.9652L21.0012 27.0106L20.999 27.0166L20.9837 27.0619V27.0681C20.9778 27.0837 20.9739 27.0994 20.9684 27.115V27.1192C20.9625 27.1389 20.9565 27.1529 20.9527 27.1665L20.951 27.1745L20.9372 27.2174L20.9352 27.2276C20.9319 27.2412 20.928 27.2554 20.9239 27.2689V27.2791L20.9121 27.3205L20.8927 27.3321L20.8908 27.3421L20.8813 27.3754L20.8794 27.3851C20.8753 27.3992 20.8715 27.4129 20.8696 27.4269L20.866 27.4366L20.8562 27.4861L20.8522 27.4996L20.8487 27.5233V27.5349L20.8408 27.5667V27.5728L20.8349 27.5926L20.829 27.6178L20.8276 27.6298V27.6437C20.8256 27.6557 20.8236 27.6673 20.8215 27.6793L20.8196 27.6929L20.8157 27.7262L20.8117 27.742C20.8117 27.752 20.8098 27.7637 20.8082 27.7757V27.7915C20.8082 27.8035 20.8063 27.8132 20.8043 27.8252V27.8546C20.8043 27.8627 20.8043 27.8682 20.8024 27.8763V27.9039C20.8024 27.9099 20.8024 27.9177 20.8024 27.9258C20.8024 27.9317 20.8024 27.9353 20.8024 27.9413C20.8024 27.9474 20.8024 27.961 20.8002 27.971C20.8002 27.9746 20.8002 27.9786 20.8002 27.9828V27.9908C20.8002 27.9983 20.8002 28.0084 20.8002 28.02C20.8002 28.03 20.8002 28.0341 20.8002 28.0417C20.8002 28.0497 20.8002 28.0579 20.8002 28.0655V28.0912C20.8002 28.0992 20.8002 28.1089 20.8002 28.119V28.1876C20.8002 28.1956 20.8002 28.2038 20.8002 28.2114C20.8002 28.2193 20.8002 28.229 20.8002 28.2371V28.2588C20.8002 28.2685 20.8002 28.2765 20.8002 28.2865V28.3083C20.8002 28.3137 20.8002 28.3198 20.8002 28.326V28.3593C20.8002 28.3652 20.8002 28.3729 20.8002 28.3809V28.4263C20.8002 28.4364 20.8024 28.446 20.8043 28.4562C20.8043 28.4596 20.8043 28.4638 20.8043 28.4678V28.4758C20.8043 28.4855 20.8062 28.4955 20.8082 28.5071V28.5247L20.8099 28.5409L20.8118 28.5545L20.8137 28.5742V28.5824L20.8159 28.6V28.6197L20.8198 28.6333V28.655L20.8217 28.6671L20.8258 28.6923V28.7004L20.8293 28.714V28.722L20.8331 28.7418L20.8353 28.7553C20.8372 28.7677 20.8392 28.7793 20.843 28.7893L20.8451 28.8048L20.8505 28.8285L20.8524 28.8402V28.8544L20.8602 28.8877L20.8643 28.9033C20.8682 28.9175 20.8717 28.9292 20.8736 28.9392L20.8776 28.9528L20.8876 28.9881L20.8895 28.9941V29.0023C20.893 29.0119 20.8971 29.0239 20.899 29.0356L20.903 29.0492L20.9163 29.0906V29.0967L20.9282 29.1339V29.1461L20.9337 29.1637L20.9396 29.1834L20.9415 29.1916V29.195L20.9513 29.2248L20.9549 29.2329L20.9589 29.2445V29.2507L20.9707 29.284L20.9742 29.294L20.9881 29.3354L20.992 29.341V29.3449L21.0073 29.3883L21.0095 29.3943L21.0268 29.4378L21.0287 29.4438L21.0442 29.4812L21.0462 29.4888V29.495C21.0522 29.5085 21.0577 29.5247 21.0655 29.5403L21.0674 29.5443L21.0848 29.5898L21.0886 29.5953L21.1021 29.6292L21.1062 29.6387L21.11 29.6467L21.1313 29.6923V29.6962L21.1334 29.6998L21.1525 29.7473V29.7533L21.1601 29.7649L21.176 29.8008V29.8027L21.1833 29.8206L21.1993 29.8538C21.6844 30.7174 22.2898 31.5043 22.9953 32.1902C23.556 32.7994 24.2195 33.3042 24.9505 33.6786C25.4742 33.9921 26.0664 34.1658 26.6733 34.1855C27.244 34.1758 27.8005 34.0001 28.2762 33.6786C29.0752 33.1718 29.8138 32.5726 30.479 31.8925C31.0959 31.2989 31.6176 30.611 32.0281 29.8538C32.6369 28.6924 32.521 27.8469 32.0721 26.5988C31.7087 25.7649 31.1964 25.0079 30.5622 24.367C29.8989 23.6927 29.1409 23.1207 28.3152 22.6715C27.7796 22.3461 27.1741 22.1606 26.5515 22.1329C26.041 22.139 25.5402 22.2848 25.105 22.5569C24.2792 23.0637 23.5233 23.6809 22.858 24.3886L22.8448 24.4022C22.1521 25.0351 21.5759 25.7903 21.1506 26.6342L21.1482 26.6341ZM20.152 34.0158L20.2898 34.1559L20.152 34.0158ZM32.2419 33.1858C32.1353 33.2999 32.0195 33.4186 31.8977 33.5448C31.7549 33.6906 31.6077 33.8344 31.4588 33.9783C31.6077 33.8344 31.7567 33.6906 31.8977 33.5448C32.0215 33.4186 32.1353 33.2999 32.2419 33.1858ZM34.4135 30.1848C34.3864 30.2383 34.3591 30.2893 34.3322 30.3427C34.1526 30.6859 33.9551 31.0191 33.7423 31.34C33.9551 31.0191 34.1526 30.6859 34.3322 30.3427C34.3591 30.2893 34.3864 30.2363 34.4135 30.1848ZM34.659 25.9956C34.7926 26.4175 34.8913 26.849 34.9531 27.2887C34.8913 26.849 34.7942 26.4155 34.659 25.9936V25.9956ZM31.4007 21.1232C31.5959 21.303 31.7853 21.4863 31.969 21.6736C32.4952 22.2156 32.977 22.801 33.41 23.4244C33.5972 23.6964 33.7654 23.9603 33.9126 24.2147C33.3675 23.2903 32.7157 22.4367 31.969 21.6736C31.7853 21.4843 31.5959 21.303 31.4007 21.1232ZM28.0148 18.7869C28.1504 18.8542 28.2896 18.9273 28.44 19.0102C28.8577 19.2366 29.2676 19.487 29.6583 19.751C29.2676 19.487 28.8577 19.2386 28.44 19.0102C28.2896 18.9293 28.1504 18.8519 28.0148 18.7869ZM21.3976 29.2187C21.3278 29.0512 21.268 28.8815 21.2199 28.7064C21.1596 28.4913 21.1269 28.2684 21.119 28.0438C21.1402 28.45 21.2332 28.8463 21.3976 29.2167V29.2187Z" fill="#53B7D1"/>
<path fill-rule="evenodd" clip-rule="evenodd" d="M49.2855 32.9139C49.7653 32.9139 50.2079 32.9039 50.6123 32.8841C51.0181 32.8644 51.434 32.823 51.8654 32.7579C52.0276 32.7207 52.1766 32.8604 52.1494 33.0301V34.4791C52.1494 34.6468 52.0488 34.7632 51.846 34.8263C51.351 34.9839 50.842 35.0923 50.3276 35.1554C49.7827 35.2301 49.2312 35.2699 48.6803 35.2716C47.7925 35.2952 46.911 35.1454 46.0814 34.8263C45.4065 34.5558 44.813 34.1126 44.3545 33.5387C43.8902 32.9336 43.5596 32.2296 43.3878 31.4804C43.175 30.5755 43.0745 29.6467 43.0843 28.7181V27.8288C43.0745 26.8985 43.173 25.97 43.38 25.0647C43.5443 24.3153 43.869 23.6135 44.3273 23.0066C44.7797 22.4326 45.3719 21.9891 46.0426 21.719C46.8722 21.3995 47.756 21.2494 48.6416 21.2733C49.6722 21.2815 50.6951 21.451 51.6757 21.7761C51.7628 21.7978 51.8419 21.845 51.9038 21.9123C51.9444 21.9754 51.9638 22.0502 51.9598 22.1253V23.5168C51.9869 23.6844 51.838 23.8267 51.6757 23.7874C51.3218 23.7379 50.935 23.6987 50.5193 23.6708C50.1014 23.643 49.678 23.6314 49.249 23.6333C48.7286 23.6177 48.2104 23.7041 47.7233 23.8837C47.3208 24.0432 46.9748 24.3193 46.7273 24.6783C46.4546 25.0887 46.2708 25.5519 46.1858 26.0405C46.0698 26.6815 46.0154 27.332 46.0252 27.9827V28.5823C46.0154 29.2349 46.0738 29.8855 46.1956 30.526C46.2843 31.013 46.4758 31.4744 46.7545 31.8786C47.0134 32.2314 47.3653 32.5036 47.7693 32.6615C48.2548 32.8408 48.7693 32.9255 49.2855 32.9119V32.9139ZM54.3479 21.8173C54.3479 21.6105 54.4427 21.508 54.6324 21.508H56.9839C57.1617 21.4823 57.3126 21.6361 57.2872 21.8173V31.8096C57.266 32.1012 57.3319 32.391 57.4769 32.6433C57.6799 32.8544 57.9679 32.9552 58.2541 32.9139H62.746C62.9242 32.888 63.0746 33.0416 63.0499 33.2232V34.6527C63.0499 34.899 62.9436 35.0272 62.7287 35.0408C62.0326 35.1039 61.2357 35.1593 60.3387 35.2049C59.4412 35.2503 58.5115 35.2716 57.5522 35.2716C57.0438 35.2816 56.5389 35.2301 56.0439 35.1181C55.6784 35.0372 55.3363 34.8677 55.0478 34.6249C54.7889 34.3903 54.6013 34.0848 54.5087 33.7457C54.3904 33.3121 54.3365 32.8624 54.3463 32.4107L54.3479 21.8173ZM67.7543 34.7117C67.7795 34.903 67.6192 35.0664 67.4316 35.0392H65.1361C64.9485 35.0664 64.788 34.903 64.8152 34.7117V21.8547C64.8152 21.6241 64.9219 21.508 65.1361 21.508H67.4316C67.6464 21.508 67.7543 21.6241 67.7543 21.8547V34.7117ZM76.6263 32.9139C77.1079 32.9139 77.5505 32.9039 77.9549 32.8841C78.3589 32.8644 78.7766 32.823 79.2059 32.7579C79.3682 32.7184 79.5173 32.8604 79.49 33.0281V34.4791C79.49 34.6468 79.3896 34.7632 79.1865 34.8263C78.6916 34.9817 78.1852 35.0923 77.6707 35.1554C77.1233 35.2301 76.5723 35.268 76.0214 35.2716C75.1338 35.2952 74.2516 35.1454 73.4224 34.8263C72.7472 34.5542 72.1536 34.1126 71.6973 33.5387C71.2334 32.9316 70.9028 32.2296 70.7304 31.4804C70.5176 30.5755 70.4171 29.6467 70.4269 28.7161V27.8268C70.4171 26.8985 70.516 25.97 70.723 25.0647C70.8873 24.3153 71.212 23.6136 71.6705 23.0046C72.123 22.4306 72.7145 21.9871 73.3852 21.719C74.215 21.3995 75.0986 21.2475 75.9842 21.2733C77.0149 21.2815 78.0401 21.451 79.0183 21.7761C79.1054 21.7978 79.1846 21.845 79.2464 21.9123C79.2871 21.9754 79.3063 22.0481 79.3028 22.1253V23.5168C79.3297 23.6844 79.1806 23.8267 79.0183 23.7874C78.6644 23.7359 78.2798 23.6987 77.8618 23.6708C77.4445 23.643 77.0208 23.6314 76.5916 23.6333C76.0713 23.6177 75.5531 23.7026 75.0659 23.8837C74.6634 24.0432 74.3194 24.3193 74.0699 24.6761C73.7972 25.0866 73.6135 25.5519 73.5288 26.0405C73.4146 26.6815 73.3605 27.332 73.368 27.9827V28.5823C73.3605 29.2349 73.4165 29.8855 73.5382 30.5238C73.6273 31.0111 73.8184 31.4744 74.0991 31.8786C74.356 32.2314 74.7081 32.5036 75.1125 32.6615C75.5976 32.8408 76.1119 32.9255 76.6283 32.9119L76.6263 32.9139ZM91.2085 21.508C91.2936 21.4979 91.3768 21.5433 91.4173 21.6225C91.454 21.707 91.4387 21.8058 91.3787 21.8749L87.322 28.0221L91.9104 34.692C91.961 34.7532 91.9703 34.8399 91.9396 34.913C91.903 35.0015 91.8139 35.0528 91.7213 35.0392H89.0467C88.9362 35.0448 88.8264 35.0252 88.7259 34.9817C88.6388 34.9308 88.5649 34.8577 88.5169 34.7687L84.63 28.7379V34.7097C84.6572 34.901 84.4948 35.0664 84.3072 35.0392H82.0117C81.8241 35.0664 81.6637 34.901 81.6909 34.7097V21.8547C81.6909 21.6226 81.7974 21.5059 82.0117 21.5059H84.3072C84.5221 21.5059 84.63 21.6226 84.63 21.8547V27.3063L88.2522 21.7386C88.3507 21.5908 88.513 21.5039 88.6873 21.5059L91.2085 21.508Z" fill="#4D4D4D"/>
</g>
<defs>
<clipPath id="clip0_1_2628">
<rect width="76" height="22" fill="white" transform="translate(16 17)"/>
</clipPath>
</defs>
</svg>
