<svg width="108" height="56" viewBox="0 0 108 56" fill="none" xmlns="http://www.w3.org/2000/svg">
<rect width="108" height="56" rx="12" fill="#F7F7FD"/>
<g clip-path="url(#clip0_1_2633)">
<path d="M78.05 44H29.95C28.8731 44 28 43.1196 28 42.0336V13.9664C28 12.8804 28.8731 12 29.95 12H78.05C79.1269 12 80 12.8804 80 13.9664V42.0336C80 43.1196 79.1269 44 78.05 44Z" fill="white"/>
<path d="M47.2124 13.022C52.7607 13.022 58.309 13.0417 63.8571 13.0091C65.3804 13.0002 66.9045 12.9918 68.4281 12.9722C68.5581 12.9706 68.6869 12.9894 68.8161 13.0008C69.4354 13.0555 69.5965 13.5548 69.7211 14.081C71.0315 19.615 70.6153 25.509 68.2872 30.7146C67.6668 32.102 66.9086 33.4091 66.0704 34.6694C65.4119 35.6596 64.6942 36.6056 63.9093 37.5009C63.3237 38.1688 62.7079 38.8068 62.0551 39.4027C60.8261 40.5242 59.5213 41.5474 58.0006 42.2502C57.1942 42.6229 56.3483 42.8565 55.4684 42.9812C54.5907 43.1057 53.7097 43.1044 52.8292 43.0851C47.9647 42.9787 43.0998 43.0615 38.2351 43.0395C35.7169 43.028 33.1986 43.0366 30.6803 43.0398C30.4172 43.0401 30.1575 43.0185 29.9094 42.9371C29.3933 42.7677 29.0805 42.3119 29.0511 41.7067C29.0427 41.535 29.0452 41.3627 29.0452 41.1907C29.0449 32.3885 29.0448 23.5863 29.0457 14.7841C29.0457 14.5321 29.0506 14.2826 29.0997 14.0306C29.2173 13.4267 29.6933 13.0671 30.2969 13.0302C30.5069 13.0173 30.7182 13.0232 30.9289 13.0232C36.3567 13.0228 41.7846 13.0229 47.2124 13.022Z" fill="#2E4653"/>
<path d="M70.7887 13.3738C70.8055 13.4626 70.8409 13.5478 70.8665 13.635C71.2923 15.0831 71.569 16.5749 71.7007 18.0793C72.1113 22.7753 71.059 27.5233 68.9645 31.7183C66.5542 36.5458 62.8559 40.4993 57.9688 42.7651C57.8747 42.8088 57.7103 42.7901 57.7402 42.9436C57.7683 43.0879 57.9225 43.0342 58.0236 43.0342C61.2448 43.0353 64.4659 43.0388 67.687 43.0258C71.1821 43.0118 75.4079 41.2297 77.4082 38.2437C78.4245 36.7264 78.61 35.0044 77.8894 33.3253C77.87 33.2799 77.846 33.2337 77.789 33.2326C77.7407 33.2429 77.7219 33.2801 77.7034 33.3154C77.3945 33.9053 77.0778 34.4899 76.7248 35.0551C75.29 37.3524 73.2228 39.2935 70.628 40.1532C69.6573 40.4748 68.8011 40.5837 68.1813 40.6184C68.3217 40.5705 68.4632 40.5218 68.6049 40.4739C69.3562 40.22 70.0862 39.9232 70.7887 39.5447C70.8957 39.4871 71.0016 39.4274 71.1065 39.3658C75.6555 36.6945 78.4893 31.171 78.9363 25.9963C79.125 23.8102 78.8298 20.8525 77.0872 19.2952C76.9419 19.1654 76.7807 19.0771 76.6018 19.0244C76.5419 19.099 76.5596 19.1725 76.5574 19.2415C76.5435 19.7054 76.5406 20.1689 76.5142 20.6335C76.2539 25.1977 74.9282 29.6226 72.6763 33.5658C72.0519 34.6592 71.3196 35.6623 70.335 36.4557C70.1038 36.642 69.8583 36.8163 69.556 36.899C69.6134 36.8169 69.6681 36.7329 69.7286 36.6531C69.9533 36.3565 70.1943 36.0711 70.4029 35.7633C72.36 32.8756 73.7174 29.5579 74.5213 26.1625C75.1389 23.5539 75.6587 20.6003 75.1502 17.9336C74.8788 16.5099 74.4268 14.8161 73.2498 13.8819C72.6278 13.3882 71.9296 13.0926 71.1386 13.0146C71.0966 13.0105 71.0587 13.0083 71.0244 13.0083C70.8002 13.0083 70.7379 13.1033 70.7887 13.3738Z" fill="url(#paint0_linear_1_2633)"/>
<path d="M40.0892 24.7505C40.0665 24.7786 40.0179 24.8267 40.0323 24.868C40.0466 24.9091 40.1348 24.8996 40.172 24.9182C40.2356 24.9504 40.2612 25.0148 40.2592 25.0832C40.2569 25.1629 40.2561 25.9267 40.2531 26.9793C39.3344 26.9739 38.4158 26.9684 37.4971 26.9629C37.4793 26.7328 37.4733 26.4747 37.4896 26.1939C37.5046 25.9351 37.5374 25.6773 37.5876 25.4231C37.6096 25.3118 37.6349 25.2011 37.6634 25.0913C37.6947 24.9706 37.781 24.8225 37.7718 24.6962C37.7707 24.6793 37.7667 24.6619 37.7561 24.6487C37.7314 24.6179 37.6841 24.6229 37.646 24.6328C37.4121 24.6933 37.1846 24.8192 37.0054 24.9821C36.9504 25.0322 36.8029 25.1733 36.6692 25.4147C36.3156 26.0534 36.2879 26.9579 36.2879 26.9579C36.27 27.5428 36.2471 28.7279 36.8649 29.9583C36.8649 29.9583 37.298 30.8208 37.9172 31.0334C38.0395 31.0754 38.0727 31.0476 38.0832 31.0339C38.1315 30.9715 38.028 30.8642 37.9974 30.8166C37.941 30.7286 37.8927 30.6353 37.8512 30.5394C37.7653 30.3408 37.7084 30.1306 37.6659 29.9187C37.5366 29.2737 37.4529 28.6209 37.4708 27.9623H40.2531V30.438C40.2531 30.6022 40.3194 30.7598 40.4696 30.8369C40.56 30.8834 40.6623 30.8998 40.7631 30.9124C40.9394 30.9344 41.1193 30.9468 41.2937 30.9129C41.3958 30.8932 41.4977 30.856 41.5739 30.7847C41.6965 30.6698 41.6984 30.5143 41.6984 30.3577C41.6984 29.1142 41.71 27.8706 41.7084 26.6271C41.708 26.3187 41.706 26.0103 41.7022 25.7019C41.6972 25.2831 41.5682 24.8613 41.2015 24.6264C41.0431 24.525 40.8616 24.4694 40.6842 24.4694C40.4616 24.4694 40.2455 24.5567 40.0892 24.7505Z" fill="url(#paint1_linear_1_2633)"/>
<path d="M35.7481 26.2574C35.3825 26.6981 35.3536 27.2125 35.3359 27.724C35.2944 28.9245 35.729 29.7786 35.8263 29.9623C36.045 30.3746 36.2824 30.6461 36.3525 30.7243C36.6024 31.0029 36.8532 31.1965 37.0456 31.3247C36.893 31.287 36.6769 31.2152 36.446 31.0718C36.2322 30.939 36.0796 30.7906 35.9793 30.677C35.8345 30.4903 35.7327 30.326 35.6658 30.209C35.4873 29.897 35.2649 29.5082 35.1515 28.987C35.1196 28.8407 35.0981 28.6919 35.0411 28.686C34.9586 28.6776 34.8655 28.9738 34.8454 29.0378C34.7803 29.2444 34.7639 29.4349 34.7651 29.5361C34.7698 29.9291 35.0619 30.6943 35.7611 31.2133C35.7611 31.2133 36.3723 31.6671 37.4175 31.702C37.4601 31.7034 37.7133 31.6974 37.9011 31.5619C37.9934 31.4953 38.0545 31.3931 37.8905 31.3447C36.7677 31.0134 36.3297 29.8142 36.0899 28.7739C36.0376 28.5473 35.9879 28.3239 35.9581 28.0922C35.8685 27.3929 35.8723 26.6238 36.0972 25.9491C35.9259 25.9879 35.8483 26.1366 35.7481 26.2574Z" fill="url(#paint2_linear_1_2633)"/>
<path d="M36.0972 25.9492C36.0988 25.9489 36.1 25.9482 36.1016 25.9479L36.0986 25.945C36.0981 25.9464 36.0977 25.9478 36.0972 25.9492Z" fill="url(#paint3_linear_1_2633)"/>
<path d="M36.0985 25.9445L36.1013 25.9473L36.1143 25.9291C36.1143 25.9291 36.0985 25.9444 36.0985 25.9445Z" fill="url(#paint4_linear_1_2633)"/>
<path d="M55.587 24.4839C55.5365 24.4846 55.4859 24.4876 55.4353 24.4876C55.3652 24.4882 55.2952 24.4895 55.225 24.49C55.1773 24.4905 55.1294 24.4904 55.0815 24.4903C54.9929 24.4902 54.9042 24.49 54.8159 24.4931C54.6935 24.4979 54.5791 24.5399 54.4924 24.6321C54.3889 24.7414 54.3068 24.8974 54.17 25.232C54.147 25.2872 54.1292 25.334 54.1165 25.3662C54.0648 25.4797 53.3304 27.0839 53.0535 27.5484C53.0334 27.583 52.988 27.657 52.9317 27.6546C52.8754 27.657 52.8299 27.583 52.8098 27.5484C52.5329 27.0839 51.7984 25.4797 51.7468 25.3662C51.7341 25.334 51.7163 25.2872 51.6933 25.232C51.5566 24.8974 51.4744 24.7414 51.3709 24.6321C51.2842 24.5399 51.1698 24.4979 51.0474 24.4931C50.959 24.49 50.8704 24.4902 50.7818 24.4903C50.7339 24.4904 50.6861 24.4905 50.6383 24.49C50.5682 24.4895 50.4981 24.4882 50.428 24.4876C50.3774 24.4876 50.3268 24.4846 50.2763 24.4839C50.2033 24.4834 50.1349 24.507 50.0728 24.5465C49.9579 24.6212 49.9085 24.7305 49.8907 24.7718C49.8573 24.8477 49.851 24.9132 49.8458 24.9405C49.7953 25.198 49.7901 25.4117 49.7947 25.5556C49.7413 27.2065 49.6878 28.8569 49.6344 30.5077C49.6362 30.535 49.6413 30.5733 49.6562 30.6158C49.7402 30.8574 50.0441 30.9765 50.2785 30.9794C50.5153 30.9825 50.798 30.8696 50.898 30.6503C50.8992 30.6479 50.9176 30.6054 50.9273 30.5582C50.9969 30.2218 51.0371 27.5143 51.052 26.3346C51.6928 27.6589 52.1944 28.6486 52.426 29.0851C52.4731 29.175 52.5736 29.3553 52.7587 29.4166C52.8121 29.4349 52.8713 29.4445 52.9317 29.4452C52.992 29.4445 53.0512 29.4349 53.1046 29.4166C53.2897 29.3553 53.3902 29.175 53.4374 29.0851C53.6689 28.6486 54.1706 27.6589 54.8113 26.3346C54.8262 27.5143 54.8664 30.2218 54.936 30.5582C54.9458 30.6054 54.9641 30.6479 54.9653 30.6503C55.0653 30.8696 55.348 30.9825 55.5848 30.9794C55.8192 30.9765 56.1232 30.8574 56.2071 30.6158C56.2221 30.5733 56.2272 30.535 56.2289 30.5077C56.1754 28.8569 56.122 27.2065 56.0686 25.5556C56.0732 25.4117 56.0681 25.198 56.0175 24.9405C56.0123 24.9132 56.006 24.8477 55.9727 24.7718C55.9548 24.7305 55.9055 24.6212 55.7905 24.5465C55.7291 24.5075 55.6617 24.4839 55.5897 24.4839C55.5888 24.4839 55.5879 24.4839 55.587 24.4839Z" fill="url(#paint5_linear_1_2633)"/>
<path d="M44.6524 29.4643C44.6669 29.4661 44.6808 29.4692 44.694 29.4729C44.694 29.474 44.6934 29.4746 44.6928 29.4759C44.682 29.4941 44.6441 29.4837 44.6524 29.4643Z" fill="white"/>
<path d="M47.1412 24.6711C47.0494 24.7739 47.0245 24.8954 47.0167 24.9687C47.0128 26.187 47.0089 27.4052 47.0051 28.6234C47.0074 28.7428 46.9955 28.9674 46.8761 29.2147C46.75 29.4758 46.5713 29.6234 46.5254 29.66C46.5254 29.66 46.2212 29.9023 45.8234 29.9348C45.7836 29.9381 45.7418 29.9395 45.7418 29.9395C45.7313 29.9399 45.7209 29.9402 45.7104 29.9402C45.6999 29.9402 45.6895 29.9399 45.6791 29.9395C45.679 29.9395 45.6372 29.9381 45.5974 29.9348C45.1996 29.9023 44.8953 29.66 44.8953 29.66C44.8495 29.6234 44.6708 29.4758 44.5448 29.2147C44.4254 28.9674 44.4134 28.7428 44.4157 28.6234C44.4118 27.4052 44.408 26.187 44.4042 24.9687C44.3964 24.8954 44.3714 24.7739 44.2796 24.6711C44.1144 24.486 43.8507 24.4934 43.6432 24.4991C43.4246 24.5052 43.1969 24.5114 43.0637 24.6812C42.9591 24.8145 42.9674 24.979 42.9757 25.0506V28.8757C42.9757 29.2316 43.0772 29.7032 43.4155 30.1508C43.7956 30.6536 44.3356 30.8777 44.5021 30.9401C44.8394 31.0665 45.1714 31.1018 45.2731 31.1121C45.4494 31.1299 45.5994 31.1308 45.7104 31.1273C45.8214 31.1308 45.9715 31.1299 46.1478 31.1121C46.2494 31.1018 46.5814 31.0665 46.9187 30.9401C47.0852 30.8777 47.6251 30.6536 48.0053 30.1508C48.3436 29.7032 48.4451 29.2316 48.4451 28.8757V25.0506C48.4535 24.979 48.4617 24.8145 48.3571 24.6812C48.224 24.5114 47.9963 24.5052 47.7776 24.4991C47.7403 24.498 47.701 24.497 47.6609 24.497C47.4783 24.497 47.2766 24.5194 47.1412 24.6711Z" fill="url(#paint6_linear_1_2633)"/>
<path d="M44.9624 31.0428C44.9739 31.0445 44.985 31.0479 44.9954 31.0526C44.9952 31.0524 44.9762 31.0643 44.9762 31.0643L44.9624 31.0428Z" fill="white"/>
<path d="M58.3231 24.9806C57.8143 25.3662 57.4398 25.9072 57.2568 26.5216C56.7335 28.2848 57.5205 30.5344 59.4045 31.0317C59.7085 31.1118 60.021 31.1458 60.3329 31.1373C60.6448 31.1458 60.9572 31.1118 61.2613 31.0317C63.1452 30.5344 63.9322 28.2848 63.409 26.5216C63.2259 25.9072 62.8514 25.3662 62.3427 24.9806C61.7659 24.544 61.0512 24.3151 60.3329 24.2981C59.6146 24.3151 58.8999 24.544 58.3231 24.9806ZM58.6554 28.49C58.4658 27.6855 58.5007 26.7384 58.9474 26.0207C59.2569 25.5234 59.7831 25.2289 60.3329 25.2247C60.8826 25.2289 61.4088 25.5234 61.7183 26.0207C62.1651 26.7384 62.1999 27.6855 62.0103 28.49C61.8135 29.3249 61.2637 30.2223 60.3329 30.232C59.4021 30.2223 58.8523 29.3249 58.6554 28.49Z" fill="url(#paint7_linear_1_2633)"/>
</g>
<defs>
<linearGradient id="paint0_linear_1_2633" x1="55.3785" y1="32.6024" x2="79.6076" y2="25.2266" gradientUnits="userSpaceOnUse">
<stop stop-color="#9C8937"/>
<stop offset="0.329003" stop-color="#9C8937"/>
<stop offset="0.330336" stop-color="#9C8937"/>
<stop offset="0.560566" stop-color="#F7E59E"/>
<stop offset="0.627021" stop-color="#F7E59E"/>
<stop offset="0.787549" stop-color="#B39F4D"/>
<stop offset="1" stop-color="#B39F4D"/>
</linearGradient>
<linearGradient id="paint1_linear_1_2633" x1="40.3705" y1="28.4826" x2="35.8878" y2="25.1186" gradientUnits="userSpaceOnUse">
<stop stop-color="#9C8937"/>
<stop offset="0.329003" stop-color="#9C8937"/>
<stop offset="0.330336" stop-color="#9C8937"/>
<stop offset="0.560566" stop-color="#F7E59E"/>
<stop offset="0.627021" stop-color="#F7E59E"/>
<stop offset="0.787549" stop-color="#B39F4D"/>
<stop offset="1" stop-color="#B39F4D"/>
</linearGradient>
<linearGradient id="paint2_linear_1_2633" x1="38.7062" y1="30.7006" x2="34.2236" y2="27.3367" gradientUnits="userSpaceOnUse">
<stop stop-color="#9C8937"/>
<stop offset="0.329003" stop-color="#9C8937"/>
<stop offset="0.330336" stop-color="#9C8937"/>
<stop offset="0.560566" stop-color="#F7E59E"/>
<stop offset="0.627021" stop-color="#F7E59E"/>
<stop offset="0.787549" stop-color="#B39F4D"/>
<stop offset="1" stop-color="#B39F4D"/>
</linearGradient>
<linearGradient id="paint3_linear_1_2633" x1="40.326" y1="29.1298" x2="35.5471" y2="25.4942" gradientUnits="userSpaceOnUse">
<stop stop-color="#9C8937"/>
<stop offset="0.329003" stop-color="#9C8937"/>
<stop offset="0.330336" stop-color="#9C8937"/>
<stop offset="0.560566" stop-color="#F7E59E"/>
<stop offset="0.627021" stop-color="#F7E59E"/>
<stop offset="0.787549" stop-color="#B39F4D"/>
<stop offset="1" stop-color="#B39F4D"/>
</linearGradient>
<linearGradient id="paint4_linear_1_2633" x1="40.0324" y1="28.9336" x2="35.5491" y2="25.5696" gradientUnits="userSpaceOnUse">
<stop stop-color="#9C8937"/>
<stop offset="0.329003" stop-color="#9C8937"/>
<stop offset="0.330336" stop-color="#9C8937"/>
<stop offset="0.560566" stop-color="#F7E59E"/>
<stop offset="0.627021" stop-color="#F7E59E"/>
<stop offset="0.787549" stop-color="#B39F4D"/>
<stop offset="1" stop-color="#B39F4D"/>
</linearGradient>
<linearGradient id="paint5_linear_1_2633" x1="56.8766" y1="29.8695" x2="49.9271" y2="26.2141" gradientUnits="userSpaceOnUse">
<stop stop-color="#9C8937"/>
<stop offset="0.329003" stop-color="#9C8937"/>
<stop offset="0.330336" stop-color="#9C8937"/>
<stop offset="0.560566" stop-color="#F7E59E"/>
<stop offset="0.627021" stop-color="#F7E59E"/>
<stop offset="0.787549" stop-color="#B39F4D"/>
<stop offset="1" stop-color="#B39F4D"/>
</linearGradient>
<linearGradient id="paint6_linear_1_2633" x1="49.1189" y1="29.5267" x2="42.1622" y2="25.2076" gradientUnits="userSpaceOnUse">
<stop stop-color="#9C8937"/>
<stop offset="0.329003" stop-color="#9C8937"/>
<stop offset="0.330336" stop-color="#9C8937"/>
<stop offset="0.560566" stop-color="#F7E59E"/>
<stop offset="0.627021" stop-color="#F7E59E"/>
<stop offset="0.787549" stop-color="#B39F4D"/>
<stop offset="1" stop-color="#B39F4D"/>
</linearGradient>
<linearGradient id="paint7_linear_1_2633" x1="65.217" y1="30.5952" x2="56.5708" y2="25.6187" gradientUnits="userSpaceOnUse">
<stop stop-color="#9C8937"/>
<stop offset="0.329003" stop-color="#9C8937"/>
<stop offset="0.330336" stop-color="#9C8937"/>
<stop offset="0.560566" stop-color="#F7E59E"/>
<stop offset="0.627021" stop-color="#F7E59E"/>
<stop offset="0.787549" stop-color="#B39F4D"/>
<stop offset="1" stop-color="#B39F4D"/>
</linearGradient>
<clipPath id="clip0_1_2633">
<rect width="52" height="32" fill="white" transform="translate(28 12)"/>
</clipPath>
</defs>
</svg>
