<svg width="64" height="64" viewBox="0 0 64 64" fill="none" xmlns="http://www.w3.org/2000/svg">
<circle cx="32" cy="32" r="31.5" fill="white" stroke="#D9F7E3"/>
<circle cx="32" cy="32" r="28" fill="#D9F7E3"/>
<g clip-path="url(#clip0_1_2340)">
<path fill-rule="evenodd" clip-rule="evenodd" d="M18.6667 32H21.6296V42.3704C21.6296 43.1562 21.9417 43.9099 22.4974 44.4655C23.0531 45.0212 23.8067 45.3334 24.5925 45.3334H39.4074C40.1932 45.3334 40.9468 45.0212 41.5025 44.4655C42.0581 43.9099 42.3703 43.1562 42.3703 42.3704V32H42.3704H45.3334L32 18.6667L18.6667 32Z" fill="white"/>
<path d="M21.6296 32H22.6296C22.6296 31.4477 22.1819 31 21.6296 31V32ZM18.6667 32L17.9596 31.2929C17.6736 31.5789 17.588 32.009 17.7428 32.3827C17.8976 32.7564 18.2622 33 18.6667 33V32ZM22.4974 44.4655L23.2045 43.7584L23.2045 43.7584L22.4974 44.4655ZM42.3703 32V31C41.818 31 41.3703 31.4477 41.3703 32H42.3703ZM45.3334 32V33C45.7378 33 46.1025 32.7564 46.2572 32.3827C46.412 32.009 46.3265 31.5789 46.0405 31.2929L45.3334 32ZM32 18.6667L32.7071 17.9596C32.3166 17.5691 31.6834 17.5691 31.2929 17.9596L32 18.6667ZM21.6296 31H18.6667V33H21.6296V31ZM20.6296 32V42.3704H22.6296V32H20.6296ZM20.6296 42.3704C20.6296 43.4214 21.0471 44.4294 21.7903 45.1726L23.2045 43.7584C22.8364 43.3903 22.6296 42.891 22.6296 42.3704H20.6296ZM21.7903 45.1726C22.5335 45.9158 23.5415 46.3334 24.5925 46.3334V44.3334C24.0719 44.3334 23.5726 44.1265 23.2045 43.7584L21.7903 45.1726ZM24.5925 46.3334H39.4074V44.3334H24.5925V46.3334ZM39.4074 46.3334C40.4584 46.3334 41.4664 45.9158 42.2096 45.1726L40.7954 43.7584C40.4273 44.1265 39.928 44.3334 39.4074 44.3334V46.3334ZM42.2096 45.1726C42.9528 44.4294 43.3703 43.4214 43.3703 42.3704H41.3703C41.3703 42.891 41.1635 43.3903 40.7954 43.7584L42.2096 45.1726ZM43.3703 42.3704V32H41.3703V42.3704H43.3703ZM42.3704 31H42.3703V33H42.3704V31ZM45.3334 31H42.3704V33H45.3334V31ZM31.2929 19.3738L44.6262 32.7071L46.0405 31.2929L32.7071 17.9596L31.2929 19.3738ZM19.3738 32.7071L32.7071 19.3738L31.2929 17.9596L17.9596 31.2929L19.3738 32.7071Z" fill="white"/>
<path d="M28 34.0002L30.6667 36.6668L36 31.3335" stroke="#1BC27A" stroke-width="2" stroke-linecap="round" stroke-linejoin="round"/>
</g>
<path d="M40 40H64V52C64 58.6274 58.6274 64 52 64C45.3726 64 40 58.6274 40 52V40Z" fill="#1BC27A"/>
<path d="M56.3595 46.7801L52.6929 45.4068C52.3129 45.2668 51.6929 45.2668 51.3129 45.4068L47.6462 46.7801C46.9395 47.0468 46.3662 47.8734 46.3662 48.6268V54.0268C46.3662 54.5668 46.7195 55.2801 47.1529 55.6001L50.8195 58.3401C51.4662 58.8268 52.5262 58.8268 53.1729 58.3401L56.8395 55.6001C57.2729 55.2734 57.6262 54.5668 57.6262 54.0268V48.6268C57.6329 47.8734 57.0595 47.0468 56.3595 46.7801ZM52.4995 52.5801V54.3334C52.4995 54.6068 52.2729 54.8334 51.9995 54.8334C51.7262 54.8334 51.4995 54.6068 51.4995 54.3334V52.5801C50.8262 52.3668 50.3329 51.7401 50.3329 51.0001C50.3329 50.0801 51.0795 49.3334 51.9995 49.3334C52.9195 49.3334 53.6662 50.0801 53.6662 51.0001C53.6662 51.7468 53.1729 52.3668 52.4995 52.5801Z" fill="white"/>
<defs>
<clipPath id="clip0_1_2340">
<rect width="32" height="32" fill="white" transform="translate(16 16)"/>
</clipPath>
</defs>
</svg>
