<svg width="108" height="56" viewBox="0 0 108 56" fill="none" xmlns="http://www.w3.org/2000/svg">
<rect width="108" height="56" rx="12" fill="#F7F7FD"/>
<g clip-path="url(#clip0_1_2631)">
<path fill-rule="evenodd" clip-rule="evenodd" d="M28.4536 19.178C28.1863 18.748 27.8405 18.3758 27.4326 18.0782C27.0179 17.7972 26.5664 17.5767 26.0883 17.4279C25.5707 17.2591 25.0357 17.1469 24.4913 17.0927C23.8558 17.0326 23.2202 17.001 22.5814 17.0039H17.0567C16.5152 16.9555 16.0411 17.3589 16.0062 17.8978C16.0062 17.8978 16.0062 17.9294 16.0062 17.9462V26.8759C16.7717 28.5106 18.0431 29.8598 19.6377 30.7249V28.9316C19.5857 28.3504 20.0173 27.8377 20.6043 27.7892H22.2617C24.5202 27.7892 26.247 27.3165 27.4378 26.3746C28.6267 25.4323 29.2308 24.0379 29.2477 22.1843C29.2506 21.6523 29.1873 21.1194 29.0606 20.6009C28.9347 20.0972 28.7298 19.6183 28.4536 19.178ZM25.2169 23.7681C25.024 24.0981 24.7359 24.3641 24.394 24.5327C24.0201 24.7108 23.6169 24.8166 23.2051 24.8448C22.7537 24.9022 22.2962 24.9309 21.8418 24.928H20.2505C19.8676 24.928 19.6321 24.622 19.6321 24.169V20.4864C19.6062 20.1429 19.9054 19.8619 20.2505 19.9022H21.8418C22.3565 19.9022 22.8428 19.9167 23.2972 19.9483C23.706 19.9652 24.1061 20.0629 24.4744 20.2345C24.8171 20.3831 25.1015 20.6381 25.2883 20.9586C25.499 21.3883 25.5963 21.8672 25.5707 22.3451C25.5792 22.8404 25.4583 23.3302 25.2169 23.7629V23.7681ZM19.64 31.2632C18.2796 30.7733 17.0392 29.9976 16.0062 28.9865V33.3019C15.9569 33.6488 16.2073 33.9669 16.5587 34.0012H19.056C19.7181 34.0012 19.64 33.2967 19.64 33.2967V31.2632ZM53.9587 21.7065H51.8064C51.3806 21.6778 50.9985 21.9615 50.9004 22.3705L48.3968 29.2359C48.3968 29.2359 46.1868 22.9838 46.0202 22.4998C45.9252 22.0386 45.5224 21.7065 45.051 21.7007H43.0653C42.3572 21.7007 42.3572 22.2506 42.4524 22.4653C42.5472 22.6802 45.2581 30.0803 46.3196 32.9127C46.4867 33.2624 46.6045 33.6317 46.6677 34.0125C46.5986 34.3876 46.4579 34.7484 46.2472 35.0694C46.167 35.2037 46.0749 35.3328 45.9716 35.4529C48.0172 34.8489 50.3913 32.6435 51.5855 30.2636C52.7875 26.9644 54.3736 22.5657 54.445 22.3391C54.5229 21.9931 54.5229 21.7065 53.9587 21.7065ZM44.36 36.1231C44.173 36.1202 43.9888 36.1034 43.8075 36.0799C43.58 36.046 43.1483 36.0799 43.1483 36.4639V38.1134C43.1483 38.7464 43.4591 38.7926 43.6177 38.835C44.1302 38.9472 44.6532 39.0012 45.1769 38.9985C45.7956 39.0154 46.4084 38.8892 46.9728 38.6319C47.4848 38.3738 47.9421 38.0132 48.3135 37.5747C48.7361 37.0967 49.0936 36.5645 49.3757 35.9911C49.6805 35.3839 49.971 34.711 50.2472 33.9748L50.5696 33.0989C49.928 33.7315 47.0995 36.3862 44.36 36.1231ZM41.0996 23.6794C40.982 23.4015 40.8206 23.144 40.6254 22.9146C40.4235 22.7057 40.1967 22.5195 39.9493 22.3649C39.6812 22.1843 39.3968 22.0297 39.0999 21.9044C38.7948 21.7863 38.4841 21.6947 38.1651 21.6236C37.8028 21.543 37.4315 21.4916 37.0601 21.4659C36.6633 21.4258 36.2167 21.4029 35.7248 21.4029C32.4307 21.4029 30.5575 22.4368 30.1 24.5042C30.0161 24.834 30.2464 25.1574 30.5863 25.1861H32.6148C33.1673 25.1861 33.1673 25.0173 33.377 24.5445C33.4691 24.287 33.6334 24.0605 33.8516 23.8943C34.3701 23.5619 34.9829 23.4044 35.5957 23.4506C36.171 23.3903 36.7464 23.5337 37.2267 23.8516C37.5921 24.1925 37.808 24.6615 37.8282 25.1603C37.8282 25.8422 37.6186 26.2915 36.7663 26.2915C34.7524 26.2196 32.586 26.4461 31.3654 27.1448C30.1397 27.8898 29.412 29.2272 29.4525 30.653C29.4408 31.1969 29.5504 31.7412 29.7803 32.2366C29.9933 32.6664 30.3069 33.0444 30.6893 33.3362C31.0952 33.6633 31.5614 33.9067 32.0624 34.0497C32.6257 34.2043 33.2099 34.2785 33.7939 34.2704C34.583 34.2843 35.3681 34.1729 36.1217 33.9406C36.7869 33.6685 37.4165 33.3165 37.9949 32.8898V33.2762C37.9949 33.6544 38.1106 33.9956 38.5474 33.9956H40.8956C41.3702 33.9956 41.4798 33.6604 41.4798 33.2419V26.0452C41.4829 25.5959 41.4512 25.1485 41.3877 24.7021C41.3332 24.3523 41.2384 24.0092 41.0996 23.6794ZM37.8888 30.7505C37.8888 30.7505 37.282 32.0161 35.1265 32.0161C34.6116 32.0396 34.099 31.8985 33.6674 31.6157C33.282 31.3172 33.0753 30.8451 33.1149 30.3612C33.0663 29.7052 33.4288 29.0892 34.0276 28.8113C34.8989 28.4763 35.8285 28.3217 36.764 28.3531C37.3712 28.2643 37.9147 28.7344 37.9118 29.3444L37.8888 30.7505Z" fill="#333333"/>
<path fill-rule="evenodd" clip-rule="evenodd" d="M91.5834 26.122C92.1388 27.0101 92.1388 28.136 91.5834 29.0261C91.0309 29.8597 88.0189 33.0612 87.0261 34.0899C86.1627 34.98 84.9974 35.8824 83.8439 35.8824H59.9267C56.6895 35.8824 56.4971 34.7828 56.4971 32.3313V22.3281C56.4971 19.8161 57.2417 19.0831 59.4578 19.0831H83.8986C85.041 19.0831 86.065 19.6675 87.2134 20.8444C88.2173 21.8492 91.1836 25.5268 91.5834 26.122Z" fill="#33CCCC"/>
<path fill-rule="evenodd" clip-rule="evenodd" d="M86.8419 29.9068C86.117 31.8512 84.2064 33.0998 82.1261 32.9913C78.9431 32.9913 76.8196 30.8345 76.8196 27.601C76.8196 24.3679 79.0293 22.1025 82.0135 22.1025C84.9974 22.1025 86.9858 24.1591 87.1123 27.4751C87.1123 27.8986 87.0084 28.2742 86.4736 28.2742H79.7203C79.766 30.0498 80.6213 31.0235 82.1459 31.0235C82.9747 31.0432 83.737 30.582 84.1024 29.8467C84.2461 29.6371 84.4856 29.5167 84.7383 29.5197H86.4797C86.7006 29.5111 86.8766 29.709 86.8361 29.9265L86.8419 29.9068ZM61.9267 22.95V22.89C61.9267 22.5666 61.9267 22.2515 61.3744 22.2515H59.3684C58.8992 22.2515 58.8765 22.5034 58.8765 22.9016V25.5395C59.6674 24.4449 60.7152 23.5548 61.9267 22.95ZM75.3582 32.4954V25.9859C75.3582 23.3197 74.1759 21.9884 71.8106 21.9884C71.1514 21.9963 70.5098 22.1852 69.9544 22.5381C69.3415 22.9184 68.7948 23.3943 68.3345 23.9471C68.1275 23.348 67.7216 22.8386 67.186 22.5007C66.5763 22.1657 65.886 22.002 65.1921 22.0306C64.1682 22.0366 63.1782 22.3775 62.3694 22.9993C62.1913 23.1765 58.8704 25.7485 58.8704 28.4317V32.5067C58.8704 32.6326 58.8042 33.1284 59.3628 33.1284H61.4456C62.0931 33.1284 62.0329 32.7045 62.0329 32.5301V25.9318C62.381 25.462 63.0922 24.348 64.2684 24.348C64.6513 24.3137 65.0257 24.4881 65.2414 24.8034C65.4772 25.2726 65.5812 25.7969 65.5404 26.3211V32.5183C65.5404 32.6445 65.4745 33.1401 66.0326 33.1401H68.0931C68.7376 33.1401 68.6771 32.7163 68.6771 32.5383V25.9083C69.0535 25.4422 69.782 24.3245 70.9159 24.3245C71.3038 24.2931 71.678 24.4656 71.9056 24.7801C72.1445 25.25 72.2503 25.7741 72.2078 26.2984V32.4954C72.2078 32.6218 72.1411 33.1166 72.6996 33.1166H74.7829C75.436 33.0856 75.3582 32.6673 75.3582 32.4954ZM82.025 24.1531C80.7591 24.1531 79.9044 25.029 79.7173 26.4699H84.2461C84.1313 25.2096 83.4462 24.1531 82.025 24.1531Z" fill="white"/>
</g>
<defs>
<clipPath id="clip0_1_2631">
<rect width="76" height="22" fill="white" transform="translate(16 17)"/>
</clipPath>
</defs>
</svg>
