<svg width="108" height="56" viewBox="0 0 108 56" fill="none" xmlns="http://www.w3.org/2000/svg">
<rect width="108" height="56" rx="12" fill="#F7F7FD"/>
<path fill-rule="evenodd" clip-rule="evenodd" d="M62.7486 20.9121H56.6028V12.5112C56.6028 12.2307 56.8346 12 57.1166 12H58.0369C58.0391 13.3765 58.589 14.6967 59.5681 15.6715C60.5499 16.6456 61.8768 17.1929 63.2624 17.1929V20.9121H62.7486ZM63.2624 23.8775C63.2624 27.3811 62.458 29.992 60.8486 31.6936C59.2397 33.3952 56.7548 34.2439 53.404 34.2439C50.272 34.2439 47.8966 33.3952 46.2769 31.6936C44.6573 29.992 43.8485 27.4271 43.8485 23.9966V12.4881C43.8485 12.2199 44.0674 12 44.3391 12H50.0169C50.2865 12.0021 50.5081 12.2199 50.5081 12.4881V24.2482C50.5081 25.6478 50.7692 26.7272 51.2975 27.4857C52.117 28.565 53.583 28.9256 54.8107 28.3509C55.2063 28.1648 55.5542 27.8923 55.8281 27.5549C56.3461 26.8403 56.6028 25.7905 56.6028 24.3989V22.199H63.2624V23.8775Z" fill="#1F3E79"/>
<path fill-rule="evenodd" clip-rule="evenodd" d="M59.3472 12H62.7486C63.0327 12 63.2624 12.2307 63.2624 12.5112V15.9C61.1015 15.9 59.3472 14.1564 59.3472 12.0043V12Z" fill="#F4821F"/>
<path fill-rule="evenodd" clip-rule="evenodd" d="M36.2217 42.8605C37.7221 42.8605 38.4446 42.0289 38.4446 40.8099V37.874H37.3737V40.7799C37.3737 42.3131 35.0624 42.3131 35.0624 40.7799V37.874H34V40.8184C34 42.0213 34.7228 42.8605 36.2217 42.8605ZM44.9218 42.7687V41.8534H42.5441L44.8712 38.7089V37.874H41.1708V38.7923H43.4979L41.1708 41.9252V42.7687H44.9218ZM49.9334 42.8605C50.7946 42.8765 51.5927 42.4138 51.996 41.6536L51.0894 41.2227C50.8668 41.6536 50.4215 41.9294 49.9288 41.9337C48.547 41.8664 47.8837 40.2164 48.8375 39.2178C49.1225 38.9174 49.5182 38.7377 49.9288 38.7174C50.4215 38.7262 50.8668 39.0008 51.0894 39.4318L51.996 38.989C51.5927 38.2331 50.7946 37.7691 49.9334 37.7936C48.0815 37.7403 46.792 39.6115 47.5093 41.3115C47.9212 42.2759 48.8835 42.8896 49.9334 42.8605ZM59.0957 42.7687L57.1966 37.874H55.8867L53.979 42.7687H55.1758L55.4834 41.9413H57.5999L57.9032 42.7687H59.0957ZM57.3106 41.0226H55.7727L56.5417 38.9174L57.3106 41.0226ZM66.1784 44.0004L64.3719 40.9062C65.0352 40.7468 65.4891 40.1331 65.4471 39.4563C65.4806 38.5422 64.7085 37.8024 63.7921 37.8782H61.4863V42.7729H62.5362V41.0311H63.305L64.973 43.9961L66.1741 44.0004H66.1784ZM63.6373 40.1161H62.5404V38.7965H63.6373C64.032 38.7508 64.3804 39.0554 64.3804 39.4563C64.3804 39.8531 64.032 40.1619 63.6373 40.1161ZM70.1145 42.7729C71.6567 42.7729 72.7276 41.8033 72.7276 40.3298C72.7276 38.8511 71.6567 37.8782 70.1145 37.8782H68.169V42.7729H70.1145ZM70.1145 41.8534H69.2198V38.7965H70.1145C70.9888 38.7292 71.7189 39.4563 71.6567 40.3298C71.6942 41.1896 70.976 41.8994 70.1102 41.8534H70.1145ZM74 37.7821V37.7936C74 38.6083 73.0126 39.0138 72.4374 38.4416C71.8618 37.8654 72.2697 36.8838 73.0849 36.8838H74V37.7821Z" fill="#1F3E79"/>
</svg>
